<svg width="137" height="24" fill="none" xmlns="http://www.w3.org/2000/svg"><path fill-rule="evenodd" clip-rule="evenodd" d="M4.72563 1H21.9603v17.2347c0 2.6209-2.1444 4.7256-4.7256 4.7256H8.29964c-.43682 0-.87365-.0397-1.27076-.1191L18.2274 8.62455l-3.4151-3.45488H11.278l3.1372 3.37546L2.70036 20.8159c-.19855-.1986-.39711-.3971-.59567-.5957L13.5812 8.62455l-4.28878-4.2491h9.29238v9.29245l-1.9458-2.1444-1.7076 2.2238 5.4802 5.4801V2.58845H3.77256l6.11553 6.11552L.0397112 15.6137C0 15.296 0 15.018 0 14.7004V5.72563C0 3.1444 2.1444 1 4.72563 1z" fill="#FE0027"/><path d="M47.3945 12.8997h-2.0886v5.8718h-2.4827V5.25464h2.4827v5.59586h2.128l4.0196-5.59586h2.798l-4.8078 6.58106 5.0048 6.9358h-2.7979l-4.2561-5.8718zM56.1035 5.25464h9.5367v2.0886h-7.0934v3.19206h3.5467c.9063 0 1.6945.1576 2.3644.5123.67.3546 1.1823.8275 1.5763 1.4186.3547.6306.5517 1.3399.5517 2.1675 0 .8275-.197 1.5763-.5517 2.1674-.3546.6305-.9063 1.1034-1.5763 1.4187-.6699.3546-1.4581.5123-2.3644.5123h-5.99V5.25464zm5.5959 11.46766c.7487 0 1.3399-.1577 1.7733-.5123.4335-.3547.6306-.867.6306-1.5369 0-.67-.1971-1.2217-.6306-1.5763-.4334-.3547-1.0246-.5517-1.7733-.5517h-3.1526v4.1772h3.1526zM77.1079 12.8997h-2.0886v5.8718h-2.4827V5.25464h2.4827v5.59586h2.128l4.0196-5.59586h2.798l-4.8078 6.58106 5.0048 6.9358H81.364l-4.2561-5.8718z" fill="#222"/><path d="M93.6984 16.604c-.4335.7881-1.064 1.3793-1.8522 1.8127-.7881.4335-1.6945.6306-2.6797.6306-1.0246 0-1.931-.1971-2.7191-.6306-.7882-.4334-1.4187-1.0246-1.8522-1.8127-.4335-.7882-.6699-1.6551-.6699-2.6797v-.0788c0-.9852.2364-1.8916.6699-2.6404.4335-.7487 1.064-1.33982 1.8522-1.77331.7881-.43348 1.6945-.63052 2.7191-.63052 1.0246 0 1.8916.19704 2.6797.63052.7882.43349 1.3793 1.02461 1.8522 1.77331.4335.7488.6699 1.6158.6699 2.6404v.0788c0 1.0246-.2364 1.9309-.6699 2.6797zm-7.0934-.9458c.2365.4729.5911.8276 1.0246 1.1034.4335.2759.9458.3941 1.4975.3941.5911 0 1.1034-.1182 1.5369-.3941.4335-.2758.7881-.6305 1.0246-1.1034.2364-.4729.3547-1.0246.3547-1.6945v-.0788c0-.6306-.1183-1.1823-.3547-1.6552-.2365-.4729-.5911-.8275-1.0246-1.064-.4335-.2758-.9458-.394-1.4975-.394-.5517 0-1.064.1182-1.5369.394-.4335.2759-.7881.6306-1.0246 1.064-.2364.4729-.3547 1.0246-.3547 1.6552v.0394c0 .6699.1183 1.261.3547 1.7339zM102.289 18.7713v-4.0984h-3.9404v4.0984H96.063V9.11646h2.2856v3.70434h3.9404V9.11646h2.286v9.65484h-2.286zM111.511 10.9686v7.8027h-2.286v-7.8027h-3.231V9.11646h8.748v1.85214h-3.231zM136.062 16.6041c-.395.7488-.946 1.3399-1.616 1.7734-.67.4335-1.458.6305-2.365.6305-.709 0-1.339-.1182-1.891-.3153-.552-.2364-1.025-.5517-1.379-1.0246V22.2h-2.286V9.11667h2.128v1.37923c.355-.55167.827-.98515 1.419-1.261.591-.27586 1.261-.39408 2.049-.39408.867 0 1.655.19704 2.325.63052.67.39408 1.221.98516 1.616 1.73396.394.7487.591 1.6157.591 2.6403v.0788c0 1.0246-.197 1.931-.591 2.6797zm-1.734-2.7585c0-.5911-.119-1.1428-.355-1.6157-.236-.4729-.552-.8276-.985-1.064-.434-.2759-.907-.3941-1.458-.3941-.552 0-1.025.1182-1.458.3941-.434.2364-.789.5911-1.025 1.064-.236.4729-.355.9852-.355 1.6157v.0788c0 .6305.119 1.2216.355 1.6551.236.4729.591.8276.985 1.064.434.2365.907.3941 1.458.3941.552 0 1.025-.1182 1.458-.3941.434-.2758.749-.6305.986-1.1034.236-.4729.354-1.0246.354-1.6551v-.0394h.04zM39.6313 15.1853c-.4729.3941-.867.7093-1.261.9458-.3941.2758-.7882.4729-1.1823.5911-.394.1182-.8275.197-1.3004.197-.8276 0-1.5369-.197-2.1674-.6305-.6306-.3941-1.1035-.9852-1.4581-1.7339-.3547-.7488-.5123-1.6157-.5123-2.6009 0-.9852.1576-1.8128.5123-2.56152.3546-.74875.8275-1.30046 1.4581-1.69453.6305-.39408 1.3792-.59112 2.2068-.59112.5911 0 1.1428.11822 1.6945.31526.5123.19704 1.1034.59112 1.7734 1.14282l1.4186-1.73393c-.7881-.66993-1.4975-1.14282-2.2462-1.45809-.7487-.31526-1.6157-.47289-2.6009-.47289-1.064 0-1.9704.15763-2.798.5123-.8275.35467-1.5368.86697-2.0886 1.49749-.5911.63053-1.0246 1.37927-1.3398 2.24624-.3153.86697-.4729 1.77337-.4729 2.79797s.1576 1.9704.4729 2.8373c.3152.867.7487 1.6157 1.3398 2.2857.5912.6305 1.2611 1.1428 2.0886 1.4975.8276.3546 1.734.5123 2.7586.5123.6699 0 1.3004-.0789 1.8916-.2365.5911-.1576 1.1428-.3941 1.6551-.7487.5123-.3153 1.0246-.7094 1.5763-1.2217l-1.4187-1.6945zM125.303 9.11656h-2.285l-.907 2.67974c-.276.7881-.512 1.5763-.748 2.325-.237.7488-.473 1.4975-.67 2.2069-.119-.4335-.276-.867-.434-1.3399-.157-.4729-.315-.9852-.473-1.5369-.157-.5517-.354-1.1034-.551-1.6945l-.907-2.67975h-2.404l3.626 10.24595c-.118.2365-.237.4335-.355.5517-.118.1577-.276.2365-.473.3153-.197.0394-.394.0788-.67.0788h-1.142l.669 1.8522h.749c.631 0 1.143-.1182 1.576-.3153.434-.197.749-.5123 1.064-.9458.276-.4334.552-.9852.789-1.6945 0 .0788 3.546-10.04894 3.546-10.04894z" fill="#222"/></svg>
